<?xml version="1.0" standalone="no"?>
<!DOCTYPE svg PUBLIC "-//W3C//DTD SVG 20010904//EN"
 "http://www.w3.org/TR/2001/REC-SVG-20010904/DTD/svg10.dtd">
<svg version="1.0" xmlns="http://www.w3.org/2000/svg"
 width="512.000000pt" height="512.000000pt" viewBox="0 0 512.000000 512.000000"
 preserveAspectRatio="xMidYMid meet">
<metadata>
Created by potrace 1.14, written by Peter Selinger 2001-2017
</metadata>
<g transform="translate(0.000000,512.000000) scale(0.100000,-0.100000)"
fill="#000000" stroke="none">
<path d="M647 4984 c-1 -1 -25 -4 -52 -7 -137 -14 -290 -112 -369 -235 -45
-70 -57 -98 -77 -172 -18 -64 -20 -3931 -3 -4005 49 -209 197 -363 396 -414
74 -19 125 -20 2023 -19 1897 0 1949 0 2017 19 183 51 306 163 375 341 l28 73
2 1965 c2 1732 1 1973 -13 2030 -49 209 -214 371 -424 416 -27 6 -3896 14
-3903 8z"/>
</g>
</svg>
